<svg width="948.9999999999999" height="256" xmlns="http://www.w3.org/2000/svg">

 <g>
  <title>background</title>
  <rect fill="none" id="canvas_background" height="258" width="951" y="-1" x="-1"/>
 </g>
 <g>
  <title>Layer 1</title>
  <g stroke="null" id="svg_13">
   <path stroke="null" id="svg_1" fill="#ffbb54" d="m238.008849,8.737689l0,244.253589c66.843384,-0.707753 120.809587,-55.116302 120.809587,-122.126795s-53.966203,-121.419041 -120.809587,-122.126795z"/>
   <path stroke="null" id="svg_2" fill="#ffd45a" d="m238.008849,8.737689c-0.442346,-0.004915 -0.884692,-0.00983 -1.327038,-0.00983c-67.452838,0 -122.136625,54.683786 -122.136625,122.136625s54.683786,122.136625 122.136625,122.136625c0.442346,0 0.884692,-0.004915 1.327038,-0.00983c55.981334,-0.845372 101.149768,-55.199856 101.149768,-122.126795s-45.168434,-121.281422 -101.149768,-122.126795z"/>
   <path stroke="null" id="svg_3" fill="#b74147" d="m285.094115,116.217918l-47.788105,61.068312l49.095483,0c8.419317,-10.729346 13.437486,-24.255301 13.437486,-38.951016l0,-7.372432c0,-8.109675 -6.635189,-14.744864 -14.744864,-14.744864z"/>
   <path stroke="null" id="svg_4" fill="#ff3c1f" d="m188.269507,116.217918c-8.109675,0 -14.744864,6.635189 -14.744864,14.744864l0,7.372432c0,14.695715 5.018169,28.22167 13.437486,38.951016l91.934228,-8.021206c3.946709,-9.141816 6.197758,-19.694224 6.197758,-30.92981l0,-7.370958s-96.824608,-14.746339 -96.824608,-14.746339z"/>
   <path stroke="null" id="svg_5" fill="#fa4087" d="m278.896357,169.265025l-41.590347,32.222443c19.930141,-0.191683 37.648553,-9.613651 49.095483,-24.201237c-2.265794,-2.885078 -4.777336,-5.573559 -7.505136,-8.021206z"/>
   <path stroke="null" id="svg_6" fill="#fa71a3" d="m278.896357,169.265025c-8.198144,19.01596 -23.729401,31.927546 -41.590347,32.222443c-0.206428,0.004915 -0.417771,0.004915 -0.624199,0.004915c-20.185719,0 -38.154793,-9.466203 -49.719682,-24.206152c11.564888,-14.735034 29.533963,-24.206152 49.719682,-24.206152c16.22918,0 31.028109,6.124034 42.214546,16.184946z"/>
   <path stroke="null" id="svg_7" fill="#fff7df" d="m270.349251,116.217918l-7.372432,22.117296l14.744864,0c4.054838,0 7.372432,-3.317594 7.372432,-7.372432l0,-14.744864l-14.744864,0z"/>
   <path stroke="null" id="svg_8" fill="#fff" d="m270.349251,116.217918l0,14.744864c0,4.054838 -3.317594,7.372432 -7.372432,7.372432l-67.33488,0c-4.054838,0 -7.372432,-3.317594 -7.372432,-7.372432l0,-14.744864l82.079744,0z"/>
   <path stroke="null" id="svg_9" fill="#ffbb54" d="m240.368027,219.924937l-7.372432,0c-2.036266,0 -3.686216,-1.650442 -3.686216,-3.686216s1.64995,-3.686216 3.686216,-3.686216l7.372432,0c2.036266,0 3.686216,1.650442 3.686216,3.686216s-1.64995,3.686216 -3.686216,3.686216z"/>
   <g stroke="null" id="svg_10" fill="#474867">
    <path stroke="null" id="svg_11" d="m277.721683,64.610894c-4.054838,0 -7.372432,3.317594 -7.372432,7.372432l0,22.117296c0,4.054838 3.317594,7.372432 7.372432,7.372432s7.372432,-3.317594 7.372432,-7.372432l0,-22.117296c0,-4.054838 -3.317594,-7.372432 -7.372432,-7.372432z"/>
    <path stroke="null" id="svg_12" d="m195.641939,64.612368c-4.054838,0 -7.372432,3.317594 -7.372432,7.372432l0,22.117296c0,4.054838 3.317594,7.372432 7.372432,7.372432s7.372432,-3.317594 7.372432,-7.372432l0,-22.117296c0,-4.054838 -3.317594,-7.372432 -7.372432,-7.372432z"/>
   </g>
  </g>
  <text stroke="null" transform="matrix(7.9547563022886445,0,0,6.319027423858642,-2127.765723901147,-394.1476410478353) " xml:space="preserve" text-anchor="start" font-family="'League Gothic', sans-serif" font-size="24" id="svg_14" y="92.756837" x="315.887111" fill-opacity="null" stroke-opacity="null" stroke-width="0" fill="#000000">HRJ</text>
 </g>
</svg>